#N canvas 1170 52 1367 1052 12;
#X floatatom 158 101 5 0 0 0 - - - 0;
#X obj 140 137 bng 19 250 50 0 empty empty empty 0 -10 0 12 #fcfcfc #000000 #000000;
#X obj 140 160 /;
#X msg 69 70 60000;
#X text 16 100 60000ms = 1 minute;
#X floatatom 140 185 5 0 0 0 - - - 0;
#X obj 140 215 s 4th_bpm;
#X obj 991 490 s on;
#X obj 991 427 tgl 50 0 empty empty ON/OFF 5 25 0 12 #c6feff #ffc7c6 #000000 0 1;
#X obj 264 130 metro;
#X floatatom 296 101 5 0 0 0 - - - 0;
#X obj 244 91 r on;
#X text 128 13 BPM;
#X obj 296 45 r 4th_bpm;
#X obj 296 74 * 4;
#X obj 264 166 bng 19 250 50 0 empty empty empty 0 -10 0 12 #fcfcfc #000000 #000000;
#X obj 264 200 s whole_note;
#X obj 416 131 metro;
#X floatatom 448 102 5 0 0 0 - - - 0;
#X obj 396 92 r on;
#X obj 448 46 r 4th_bpm;
#X obj 416 167 bng 19 250 50 0 empty empty empty 0 -10 0 12 #fcfcfc #000000 #000000;
#X obj 448 75 * 1;
#X obj 416 201 s 4th_note;
#X obj 69 38 r on;
#X obj 158 38 r on;
#X text 355 10 Clocks;
#X text 603 10 Clock/Sequencer;
#X obj 591 42 r on;
#X obj 640 42 r whole_note;
#X obj 640 112 bng 19 250 50 0 empty empty empty 0 -10 0 12 #fcfcfc #000000 #000000;
#X obj 696 159 + 1;
#X floatatom 640 190 5 0 0 0 - - - 0;
#X obj 640 165 % 2;
#X obj 640 140 int;
#X obj 640 216 select 1;
#X obj 640 248 bng 19 250 50 0 empty empty empty 0 -10 0 12 #fcfcfc #000000 #000000;
#X obj 593 189 r on;
#X msg 591 72 0;
#X msg 593 216 0;
#X obj 31 448 tgl 19 0 empty empty empty 0 -10 0 12 #fcfcfc #000000 #000000 0 1;
#X obj 31 480 select 0;
#X obj 31 519 bng 19 250 50 0 empty empty empty 0 -10 0 12 #fcfcfc #000000 #000000;
#X obj 84 521 bng 19 250 50 0 empty empty empty 0 -10 0 12 #fcfcfc #000000 #000000;
#X msg 31 561 130.81;
#X msg 84 561 87.31;
#X floatatom 31 610 7 0 0 0 - - - 16;
#X obj 31 651 phasor~;
#X obj 30 784 *~;
#X obj 31 912 *~;
#X obj 52 854 hsl 100 19 0 1 0 0 empty empty empty -2 -10 0 12 #fcfcfc #000000 #000000 0 1;
#X floatatom 49 883 5 0 0 0 - - - 0;
#X obj 961 840 dac~;
#X obj 31 945 s~ bass;
#X obj 960 795 *~ 1;
#X obj 812 536 r~ bass;
#X obj 985 770 tgl 19 0 empty empty empty 0 -10 0 12 #fcfcfc #000000 #000000 0 1;
#X obj 985 746 r on;
#X text 48 390 bass;
#X obj 851 37 r whole_note;
#X obj 851 61 bng 19 250 50 0 empty empty empty 0 -10 0 12 #fcfcfc #000000 #000000;
#X obj 244 429 r random_chord;
#X floatatom 244 483 8 0 0 0 - - - 16;
#X obj 244 685 *~;
#X obj 244 853 s~ ambient;
#X obj 393 414 r whole_note;
#X obj 393 559 vline~;
#X obj 505 618 metro 10;
#X floatatom 505 717 5 0 0 0 - - - 0;
#X obj 505 690 snapshot~;
#X obj 505 555 r on;
#X obj 505 579 tgl 19 0 empty empty empty 0 -10 0 12 #fcfcfc #000000 #000000 0 1;
#X obj 508 743 hsl 70 19 0 1 0 0 empty empty empty -2 -10 0 12 #fcfcfc #000000 #000000 0 1;
#X obj 406 503 r on;
#X msg 406 527 0;
#X obj 393 445 bng 19 250 50 0 empty empty empty 0 -10 0 12 #fcfcfc #000000 #000000;
#X obj 930 536 r~ ambient;
#X obj 266 761 hsl 100 19 0 1 0 0 empty empty empty -2 -10 0 12 #fcfcfc #000000 #000000 0 1;
#X floatatom 263 790 5 0 0 0 - - - 0;
#X obj 245 815 *~;
#X obj 851 85 random 8;
#X floatatom 851 109 5 0 0 0 - - - 0;
#X obj 870 157 bng 15 250 50 0 empty empty empty 0 -10 0 12 #fcfcfc #000000 #000000;
#X obj 851 157 bng 15 250 50 0 empty empty empty 0 -10 0 12 #fcfcfc #000000 #000000;
#X obj 851 132 select 1 2 3 4 5 6 7;
#X obj 890 157 bng 15 250 50 0 empty empty empty 0 -10 0 12 #fcfcfc #000000 #000000;
#X obj 929 157 bng 15 250 50 0 empty empty empty 0 -10 0 12 #fcfcfc #000000 #000000;
#X obj 948 157 bng 15 250 50 0 empty empty empty 0 -10 0 12 #fcfcfc #000000 #000000;
#X obj 968 157 bng 15 250 50 0 empty empty empty 0 -10 0 12 #fcfcfc #000000 #000000;
#X obj 988 157 bng 15 250 50 0 empty empty empty 0 -10 0 12 #fcfcfc #000000 #000000;
#X obj 910 157 bng 15 250 50 0 empty empty empty 0 -10 0 12 #fcfcfc #000000 #000000;
#X msg 832 184 62;
#X msg 866 184 64;
#X msg 934 184 67;
#X msg 968 184 69;
#X msg 1002 184 71;
#X msg 1036 184 72;
#X msg 900 184 65;
#X text 804 206 C;
#X text 839 206 D;
#X text 873 206 E;
#X text 908 206 F;
#X text 941 207 G;
#X text 974 207 A;
#X text 1007 207 B;
#X text 1041 207 C;
#X floatatom 916 276 5 0 0 0 - - - 0;
#X obj 916 300 mtof;
#X floatatom 916 326 5 0 0 0 - - - 0;
#X obj 916 354 s random_chord;
#X text 894 11 Random Chords;
#X text 953 301 <- converts MIDI note to frequency;
#X text 1017 154 C major scale in MIDI note;
#X obj 812 610 *~;
#X obj 830 586 tgl 19 0 empty empty empty 0 -10 0 12 #fcfcfc #000000 #000000 0 1;
#X obj 830 562 r on;
#X obj 930 610 *~;
#X obj 948 586 tgl 19 0 empty empty empty 0 -10 0 12 #fcfcfc #000000 #000000 0 1;
#X obj 948 562 r on;
#X text 278 399 ambient;
#X obj 244 576 phasor~;
#X obj 91 697 *~ 0.5;
#X obj 31 735 lop~ 80;
#X obj 256 457 bng 19 250 50 0 empty empty empty 0 -10 0 12 #fcfcfc #000000 #000000;
#X obj 394 690 s~ a_envelope;
#X obj 262 654 r~ a_envelope;
#X obj 578 558 vline~;
#X obj 690 617 metro 10;
#X floatatom 690 716 5 0 0 0 - - - 0;
#X obj 690 689 snapshot~;
#X obj 690 554 r on;
#X obj 690 578 tgl 19 0 empty empty empty 0 -10 0 12 #fcfcfc #000000 #000000 0 1;
#X obj 693 742 hsl 70 19 0 1 0 0 empty empty empty -2 -10 0 12 #fcfcfc #000000 #000000 0 1;
#X obj 591 502 r on;
#X msg 591 526 0;
#X obj 579 689 s~ b_envelope;
#X obj 48 758 r~ b_envelope;
#X obj 640 283 s new_chord;
#X obj 578 413 r new_chord;
#X obj 578 445 bng 19 250 50 0 empty empty empty 0 -10 0 12 #fcfcfc #000000 #000000;
#X text 642 383 b_envelope;
#X text 457 384 a_envelope;
#X obj 244 625 lop~ 80;
#X msg 798 184 60;
#X obj 31 416 r new_chord;
#X msg 263 737 0.22;
#X obj 263 713 r on;
#X obj 303 587 *~ 0.5;
#X obj 49 808 r on;
#X msg 49 831 1;
#X obj 304 556 phasor~;
#X obj 92 670 phasor~;
#X msg 158 70 60;
#X msg 578 477 1 8000 \, 0 8000 7000;
#X msg 393 478 1 4000 \, 0 4000 3500;
#X obj 304 523 * 1.004;
#X obj 92 643 * 0.5008;
#X obj 991 400 loadbang;
#X obj 944 693 rev1~;
#X obj 1025 601 r on;
#X obj 874 702 rev1~;
#X obj 872 622 r on;
#X msg 871 662 50;
#X msg 1025 641 100;
#X connect 0 0 1 0;
#X connect 0 0 2 1;
#X connect 1 0 2 0;
#X connect 2 0 5 0;
#X connect 3 0 2 0;
#X connect 5 0 6 0;
#X connect 8 0 7 0;
#X connect 9 0 15 0;
#X connect 10 0 9 1;
#X connect 11 0 9 0;
#X connect 13 0 14 0;
#X connect 14 0 10 0;
#X connect 15 0 16 0;
#X connect 17 0 21 0;
#X connect 18 0 17 1;
#X connect 19 0 17 0;
#X connect 20 0 22 0;
#X connect 21 0 23 0;
#X connect 22 0 18 0;
#X connect 24 0 3 0;
#X connect 25 0 152 0;
#X connect 28 0 38 0;
#X connect 29 0 30 0;
#X connect 30 0 34 0;
#X connect 31 0 34 1;
#X connect 32 0 35 0;
#X connect 33 0 32 0;
#X connect 34 0 31 0;
#X connect 34 0 33 0;
#X connect 35 0 36 0;
#X connect 36 0 137 0;
#X connect 37 0 39 0;
#X connect 38 0 34 0;
#X connect 40 0 41 0;
#X connect 41 0 42 0;
#X connect 41 1 43 0;
#X connect 42 0 44 0;
#X connect 43 0 45 0;
#X connect 44 0 46 0;
#X connect 45 0 46 0;
#X connect 46 0 47 0;
#X connect 46 0 156 0;
#X connect 47 0 122 0;
#X connect 48 0 49 0;
#X connect 49 0 53 0;
#X connect 50 0 51 0;
#X connect 51 0 49 1;
#X connect 54 0 52 0;
#X connect 54 0 52 1;
#X connect 55 0 113 0;
#X connect 56 0 54 1;
#X connect 57 0 56 0;
#X connect 59 0 60 0;
#X connect 60 0 80 0;
#X connect 61 0 123 0;
#X connect 61 0 62 0;
#X connect 62 0 120 0;
#X connect 62 0 155 0;
#X connect 63 0 79 0;
#X connect 65 0 75 0;
#X connect 66 0 69 0;
#X connect 66 0 124 0;
#X connect 67 0 69 0;
#X connect 68 0 72 0;
#X connect 69 0 68 0;
#X connect 70 0 71 0;
#X connect 71 0 67 0;
#X connect 73 0 74 0;
#X connect 74 0 66 0;
#X connect 75 0 154 0;
#X connect 76 0 116 0;
#X connect 77 0 78 0;
#X connect 78 0 79 1;
#X connect 79 0 64 0;
#X connect 80 0 81 0;
#X connect 81 0 84 0;
#X connect 82 0 91 0;
#X connect 83 0 143 0;
#X connect 84 0 83 0;
#X connect 84 1 82 0;
#X connect 84 2 85 0;
#X connect 84 3 90 0;
#X connect 84 4 86 0;
#X connect 84 5 87 0;
#X connect 84 6 88 0;
#X connect 84 7 89 0;
#X connect 85 0 92 0;
#X connect 86 0 93 0;
#X connect 87 0 94 0;
#X connect 88 0 95 0;
#X connect 89 0 96 0;
#X connect 90 0 97 0;
#X connect 91 0 106 0;
#X connect 92 0 106 0;
#X connect 93 0 106 0;
#X connect 94 0 106 0;
#X connect 95 0 106 0;
#X connect 96 0 106 0;
#X connect 97 0 106 0;
#X connect 106 0 107 0;
#X connect 107 0 108 0;
#X connect 108 0 109 0;
#X connect 113 0 160 0;
#X connect 114 0 113 1;
#X connect 115 0 114 0;
#X connect 116 0 158 0;
#X connect 117 0 116 1;
#X connect 118 0 117 0;
#X connect 120 0 142 0;
#X connect 121 0 122 0;
#X connect 122 0 48 0;
#X connect 125 0 63 1;
#X connect 126 0 129 0;
#X connect 126 0 135 0;
#X connect 127 0 129 0;
#X connect 128 0 132 0;
#X connect 129 0 128 0;
#X connect 130 0 131 0;
#X connect 131 0 127 0;
#X connect 133 0 134 0;
#X connect 134 0 126 0;
#X connect 136 0 48 1;
#X connect 138 0 139 0;
#X connect 139 0 153 0;
#X connect 142 0 63 0;
#X connect 143 0 106 0;
#X connect 144 0 40 0;
#X connect 145 0 77 0;
#X connect 146 0 145 0;
#X connect 147 0 142 0;
#X connect 148 0 149 0;
#X connect 149 0 50 0;
#X connect 150 0 147 0;
#X connect 151 0 121 0;
#X connect 152 0 0 0;
#X connect 153 0 126 0;
#X connect 154 0 66 0;
#X connect 155 0 150 0;
#X connect 156 0 151 0;
#X connect 157 0 8 0;
#X connect 158 0 54 0;
#X connect 159 0 163 0;
#X connect 160 0 54 0;
#X connect 161 0 162 0;
#X connect 162 0 160 1;
#X connect 163 0 158 1;
