#N canvas 933 179 1357 631 12;
#X obj 31 262 *~;
#X obj 70 262 hsl 100 19 0 1 0 0 empty empty volume -2 -10 0 12 #c6ffc7 #000000 #000000 0 1;
#N canvas 846 147 938 852 bird 0;
#X obj 340 341 osc~;
#X obj 633 224 vline~;
#X floatatom 745 382 5 0 0 0 - - - 0;
#X obj 745 355 snapshot~;
#X obj 745 244 tgl 19 0 empty empty empty 0 -10 0 12 #c7c6ff #000000 #000000 0 1;
#X obj 748 408 hsl 70 19 0 1 0 0 empty empty empty -2 -10 0 12 #feffc6 #000000 #000000 0 1;
#X obj 646 168 r on;
#X msg 646 192 0;
#X obj 363 24 tgl 50 0 empty empty empty 0 -10 0 12 #c7c6ff #000000 #000000 0 1;
#X obj 363 160 bng 19 250 50 0 empty empty empty 0 -10 0 12 #ffc7c6 #000000 #000000;
#X obj 745 444 s b_pulse;
#X obj 634 355 s~ b_env1;
#X floatatom 52 240 5 0 0 0 - - - 0;
#X obj 143 296 *;
#X obj 143 263 t b f;
#X floatatom 143 234 5 0 0 0 - - - 0;
#X obj 83 122 / 1000;
#X obj 52 179 loadbang;
#X obj 143 115 r b_pulse;
#X obj 341 544 *~;
#X obj 359 508 r~ b_env1;
#X floatatom 143 320 5 0 0 0 - - - 0;
#X obj 633 40 bng 19 250 50 0 empty empty empty 0 -10 0 12 #ffc7c6 #000000 #000000;
#X floatatom 386 365 9 0 0 0 - - - 0;
#X obj 386 388 osc~;
#X obj 143 168 t b f;
#X obj 143 201 *;
#X floatatom 633 90 5 0 0 0 - - - 0;
#N canvas 779 176 450 300 del2 0;
#X obj 153 27 inlet~;
#X obj 260 154 *~ 1;
#X obj 225 199 outlet~;
#X obj 247 97 delread~ delay2 40;
#X obj 45 87 delwrite~ delay2 1140;
#X obj 153 128 *~ 0.2;
#X connect 0 0 4 0;
#X connect 1 0 2 0;
#X connect 3 0 1 0;
#X connect 3 0 5 0;
#X connect 5 0 4 0;
#X restore 342 582 pd del2;
#X obj 83 75 + 701;
#X floatatom 83 99 5 0 0 0 - - - 0;
#X obj 83 51 random 200;
#X obj 386 341 * 1.2;
#X obj 340 778 outlet~;
#X obj 363 184 s b_metro2;
#X obj 633 14 r b_metro2;
#X obj 633 113 select 1;
#X obj 363 -7 r on;
#X obj 745 212 r on;
#X obj 745 283 metro 5;
#X obj 633 66 random 3;
#X obj 395 86 inlet;
#X obj 363 135 metro;
#X obj 366 617 r b_metro2;
#X floatatom 366 715 5 0 0 0 - - - 0;
#X obj 366 691 + 100;
#X obj 366 667 random 600;
#X obj 83 -1 r b_metro2;
#X obj 146 139 hsl 70 19 0 1 0 0 empty empty empty -2 -10 0 12 #feffc6 #000000 #000000 0 1;
#X obj 83 23 bng 19 250 50 0 empty empty empty 0 -10 0 12 #ffc7c6 #000000 #000000;
#X obj 366 641 bng 19 250 50 0 empty empty empty 0 -10 0 12 #ffc7c6 #000000 #000000;
#X obj 341 743 lop~;
#X text 727 86 sends when to chirp;
#X text 522 357 chirp duration;
#X text 647 446 alters pitch;
#X text 24 274 base frequency;
#X text 115 24 randomizes pitch slightly;
#X obj 143 347 s random_pitch;
#X obj 363 299 r random_pitch;
#X msg 52 208 7800;
#X obj 340 471 *~ 0.5;
#X obj 386 436 bp~ 8000 10;
#X obj 386 413 *~ 0.8;
#X msg 633 142 1 90 \, 0 20 80;
#X connect 0 0 60 0;
#X connect 1 0 3 0;
#X connect 1 0 11 0;
#X connect 2 0 5 0;
#X connect 3 0 2 0;
#X connect 4 0 39 0;
#X connect 5 0 10 0;
#X connect 6 0 7 0;
#X connect 7 0 1 0;
#X connect 8 0 42 0;
#X connect 9 0 34 0;
#X connect 12 0 13 0;
#X connect 13 0 21 0;
#X connect 14 0 13 0;
#X connect 14 1 13 1;
#X connect 15 0 14 0;
#X connect 16 0 26 0;
#X connect 17 0 59 0;
#X connect 18 0 48 0;
#X connect 19 0 28 0;
#X connect 20 0 19 1;
#X connect 21 0 57 0;
#X connect 22 0 40 0;
#X connect 23 0 24 0;
#X connect 24 0 62 0;
#X connect 25 0 26 0;
#X connect 25 1 26 1;
#X connect 26 0 15 0;
#X connect 27 0 36 0;
#X connect 28 0 51 0;
#X connect 29 0 30 0;
#X connect 30 0 16 0;
#X connect 31 0 29 0;
#X connect 32 0 23 0;
#X connect 35 0 22 0;
#X connect 36 0 63 0;
#X connect 37 0 8 0;
#X connect 38 0 4 0;
#X connect 39 0 3 0;
#X connect 40 0 27 0;
#X connect 41 0 42 1;
#X connect 42 0 9 0;
#X connect 43 0 50 0;
#X connect 44 0 51 1;
#X connect 45 0 44 0;
#X connect 46 0 45 0;
#X connect 47 0 49 0;
#X connect 48 0 25 0;
#X connect 49 0 31 0;
#X connect 50 0 46 0;
#X connect 51 0 33 0;
#X connect 58 0 32 0;
#X connect 58 0 0 0;
#X connect 59 0 12 0;
#X connect 60 0 19 0;
#X connect 61 0 60 0;
#X connect 62 0 61 0;
#X connect 63 0 1 0;
#X restore 32 130 pd bird;
#X obj 249 164 s on;
#X obj 249 48 tgl 100 0 empty empty On/Off\ everything 0 -10 0 12 #c7c6ff #000000 #000000 0 1;
#X obj 35 90 hsl 162 19 800 50 0 0 empty empty chatter\ amount -2 -10 0 12 #c6feff #000000 #000000 0 1;
#X msg 32 49 300;
#X obj 32 21 r on;
#X obj 67 160 r on;
#X obj 67 184 sel 1;
#X msg 102 213 0;
#X obj 32 360 dac~;
#X obj 74 314 tgl 19 0 empty empty empty 0 -10 0 12 #c7c6ff #000000 #000000 0 1;
#X obj 74 337 metro 50;
#X obj 74 291 r on;
#X msg 67 213 0.1;
#X connect 0 0 11 1;
#X connect 0 0 11 0;
#X connect 1 0 0 1;
#X connect 2 0 0 0;
#X connect 4 0 3 0;
#X connect 5 0 2 0;
#X connect 6 0 5 0;
#X connect 7 0 6 0;
#X connect 8 0 9 0;
#X connect 9 0 15 0;
#X connect 9 1 10 0;
#X connect 10 0 1 0;
#X connect 12 0 13 0;
#X connect 14 0 12 0;
#X connect 15 0 1 0;
