#N canvas 595 240 673 606 12;
#X obj 205 88 noise~;
#X obj 325 67 hsl 162 19 0 120 0 0 empty empty empty -2 -10 0 12 #fcfcfc #000000 #000000 0 1;
#X floatatom 322 91 5 0 0 0 - - - 0;
#X obj 496 67 hsl 162 19 0 500 0 0 empty empty empty -2 -10 0 12 #fcfcfc #000000 #000000 0 1;
#X floatatom 494 92 5 0 0 0 - - - 0;
#X obj 240 142 vcf~;
#X obj 206 204 *~;
#X obj 243 537 dac~;
#X obj 241 277 hip~ 8000;
#N canvas 288 342 450 300 spell-lightning_delay 0;
#X obj 142 30 inlet~;
#X obj 206 185 outlet~;
#X obj 232 140 *~ 1;
#X obj 232 106 delread~ s-l_del 100;
#X obj 65 95 delwrite~ s-l_del 120;
#X obj 159 140 *~ 0.3;
#X connect 0 0 4 0;
#X connect 2 0 1 0;
#X connect 3 0 2 0;
#X connect 3 0 5 0;
#X connect 5 0 4 0;
#X restore 244 334 pd spell-lightning_delay;
#X obj 307 459 *~;
#X obj 342 459 *~;
#X obj 339 421 adc~;
#X msg 322 37 66.33;
#X msg 502 37 60;
#X obj 414 5 loadbang;
#X obj 243 393 *~ 0.6;
#X connect 0 0 5 0;
#X connect 0 0 6 0;
#X connect 1 0 2 0;
#X connect 2 0 5 1;
#X connect 3 0 4 0;
#X connect 4 0 5 2;
#X connect 5 0 6 1;
#X connect 6 0 8 0;
#X connect 8 0 9 0;
#X connect 9 0 16 0;
#X connect 10 0 7 0;
#X connect 11 0 7 1;
#X connect 12 0 10 1;
#X connect 12 1 11 1;
#X connect 13 0 1 0;
#X connect 14 0 3 0;
#X connect 15 0 13 0;
#X connect 15 0 14 0;
#X connect 16 0 10 0;
#X connect 16 0 11 0;
#X connect 16 0 7 0;
#X connect 16 0 7 1;
