#N canvas 159 263 875 618 12;
#X obj 396 79 noise~;
#X obj 423 133 vcf~;
#X obj 209 400 dac~;
#X obj 426 248 *~ 9.1;
#X obj 427 206 lop~ 50;
#X msg 458 79 34;
#X msg 494 80 1;
#X obj 485 -4 loadbang;
#N canvas 130 130 450 300 earth_del 0;
#X obj 44 111 delwrite~ earthdel1 200;
#X obj 239 125 delread~ earthdel1 200;
#X obj 177 50 inlet~;
#X obj 243 168 *~ 1;
#X obj 171 157 *~ 0.3;
#X obj 216 205 outlet~;
#X connect 1 0 3 0;
#X connect 1 0 4 0;
#X connect 2 0 0 0;
#X connect 3 0 5 0;
#X connect 4 0 0 0;
#X restore 444 171 pd earth_del;
#X obj 211 339 *~;
#X obj 252 344 *~;
#X obj 249 305 adc~;
#X msg 55 45 read -resize newlocknew.wav newlocknew;
#X obj 55 69 soundfiler;
#X floatatom 190 95 9 0 0 0 - - - 0;
#X obj 55 93 expr 44100 / $f1;
#X obj 55 117 phasor~;
#X obj 90 188 tabread4~ newlocknew;
#N canvas 0 50 450 250 (subpatch) 0;
#X array newlocknew 580709 float 2;
#X coords 0 1 580709 -1 192 135 1 0 0;
#X restore 386 347 graph;
#X obj 92 153 *~;
#X obj 108 268 *~ 0.5;
#X text 374 495 sound effect by newlocknew on Freesound.org;
#X connect 0 0 1 0;
#X connect 1 0 8 0;
#X connect 1 0 4 0;
#X connect 3 0 10 0;
#X connect 3 0 9 0;
#X connect 4 0 3 0;
#X connect 5 0 1 1;
#X connect 6 0 1 2;
#X connect 7 0 5 0;
#X connect 7 0 6 0;
#X connect 7 0 12 0;
#X connect 8 0 4 0;
#X connect 9 0 2 0;
#X connect 10 0 2 1;
#X connect 11 0 9 1;
#X connect 11 0 10 1;
#X connect 12 0 13 0;
#X connect 13 0 14 0;
#X connect 13 0 15 0;
#X connect 14 0 19 1;
#X connect 15 0 16 0;
#X connect 16 0 19 0;
#X connect 17 0 20 0;
#X connect 19 0 17 0;
#X connect 20 0 10 0;
#X connect 20 0 9 0;
