#N canvas 1038 286 1021 684 12;
#X obj 117 93 soundfiler;
#N canvas 0 50 450 250 (subpatch) 0;
#X array epicwizard 286885 float 2;
#X coords 0 1 286885 -1 200 140 1;
#X restore 411 33 graph;
#X floatatom 243 146 11 0 0 0 - - - 0;
#X floatatom 117 141 5 0 0 0 - - - 0;
#X obj 117 117 expr 44100 / $f1;
#X obj 130 229 *~;
#X obj 135 287 tabread4~ epicwizard;
#X obj 147 452 dac~;
#X msg 117 65 read -resize epicwizard.wav epicwizard;
#X obj 154 354 *~ 1;
#X obj 116 182 phasor~;
#X obj 114 34 loadbang;
#X text 404 186 sound effect by epicwizard on Freesound.org;
#X obj 217 417 *~;
#X obj 254 420 *~;
#X obj 250 382 adc~;
#X connect 0 0 2 0;
#X connect 0 0 4 0;
#X connect 2 0 5 1;
#X connect 3 0 10 0;
#X connect 4 0 3 0;
#X connect 5 0 6 0;
#X connect 6 0 9 0;
#X connect 8 0 0 0;
#X connect 9 0 13 0;
#X connect 9 0 14 0;
#X connect 10 0 5 0;
#X connect 11 0 8 0;
#X connect 13 0 7 0;
#X connect 14 0 7 1;
#X connect 15 0 14 1;
#X connect 15 0 13 1;
