#N canvas 504 231 790 601 12;
#X obj 77 12 noise~;
#X obj 76 163 bp~ \$1 \$2;
#X obj 168 92 hsl 162 19 10 40 0 0 empty empty empty -2 -10 0 12 #feffc6 #000000 #000000 0 1;
#X floatatom 165 116 5 0 0 0 - - - 0;
#X msg 165 69 20;
#X obj 75 431 *~;
#X obj 452 356 vline~;
#X obj 452 199 bng 19 250 50 0 empty empty empty 0 -10 0 12 #ffc7c6 #000000 #000000;
#X obj 509 432 snapshot~;
#X obj 509 404 metro 5;
#X floatatom 509 456 5 0 0 0 - - - 0;
#X obj 512 479 hsl 100 19 10 40 0 0 empty empty empty -2 -10 0 12 #feffc6 #000000 #000000 0 1;
#X obj 75 298 hip~ 1500;
#X obj 460 65 metro 1500;
#X floatatom 135 274 5 0 0 0 - - - 0;
#X obj 135 250 * 40;
#X msg 505 286 40 900 \, 10 1200 900;
#X msg 452 320 40 800 \, 10 500 900;
#X obj 75 347 *~ 1;
#X obj 452 247 select 1;
#X msg 106 117 580;
#X obj 163 30 loadbang;
#X obj 141 350 loadbang;
#X obj 508 370 loadbang;
#X obj 460 36 loadbang;
#X obj 460 89 s spell-wind_metro;
#X obj 452 175 r spell-wind_metro;
#X obj 509 503 s spell-wind_snapshot;
#X obj 135 226 r spell-wind_snapshot;
#X obj 207 62 r spell-wind_snapshot;
#X obj 75 547 dac~;
#X obj 72 496 *~;
#X obj 111 499 *~;
#X obj 110 459 adc~;
#X obj 141 374 delay 100;
#X obj 452 223 random 4;
#X msg 95 400 0.4;
#X connect 0 0 1 0;
#X connect 1 0 12 0;
#X connect 2 0 3 0;
#X connect 3 0 1 2;
#X connect 4 0 2 0;
#X connect 5 0 31 0;
#X connect 5 0 32 0;
#X connect 6 0 8 0;
#X connect 7 0 35 0;
#X connect 8 0 10 0;
#X connect 9 0 8 0;
#X connect 10 0 11 0;
#X connect 11 0 27 0;
#X connect 12 0 18 0;
#X connect 13 0 25 0;
#X connect 14 0 12 1;
#X connect 15 0 14 0;
#X connect 16 0 6 0;
#X connect 17 0 6 0;
#X connect 18 0 5 0;
#X connect 19 0 17 0;
#X connect 19 1 16 0;
#X connect 20 0 1 1;
#X connect 21 0 4 0;
#X connect 21 0 20 0;
#X connect 22 0 34 0;
#X connect 23 0 9 0;
#X connect 24 0 13 0;
#X connect 26 0 7 0;
#X connect 28 0 15 0;
#X connect 29 0 2 0;
#X connect 31 0 30 0;
#X connect 32 0 30 1;
#X connect 33 0 31 1;
#X connect 33 1 32 1;
#X connect 34 0 36 0;
#X connect 35 0 19 0;
#X connect 36 0 5 1;
