#N canvas 182 182 450 300 12;
#X obj 86 13 noise~;
#X obj 87 123 clip~ -0.7 0.7;
#X obj 86 61 hip~ 20;
#X obj 86 37 bp~ 22 5;
#X obj 87 247 dac~;
#X obj 87 197 *~;
#X obj 117 197 *~;
#X obj 134 159 adc~;
#X text 189 160 <- unity spacialization;
#X obj 86 99 *~ 55;
#X connect 0 0 3 0;
#X connect 1 0 5 0;
#X connect 1 0 6 0;
#X connect 2 0 9 0;
#X connect 3 0 2 0;
#X connect 5 0 4 0;
#X connect 6 0 4 1;
#X connect 7 0 5 1;
#X connect 7 1 6 1;
#X connect 9 0 1 0;
