#N canvas 1144 264 450 300 12;
#N canvas 1043 353 1318 815 wind_chime 0;
#X obj 71 162 *~;
#N canvas 1175 376 450 300 w_c_del1 0;
#X obj 153 27 inlet~;
#X obj 260 154 *~ 1;
#X obj 225 199 outlet~;
#X obj 247 98 delread~ w_c_del 110;
#X obj 153 128 *~ 0.8;
#X obj 45 86 delwrite~ w_c_del 900;
#X connect 0 0 5 0;
#X connect 1 0 2 0;
#X connect 3 0 1 0;
#X connect 3 0 4 0;
#X connect 4 0 5 0;
#X restore 71 191 pd w_c_del1;
#X obj 71 249 outlet~;
#X obj 72 315 inlet;
#X floatatom 37 676 5 0 0 0 - - - 0;
#X obj 37 618 r on;
#X obj 89 133 tgl 19 0 empty empty empty 0 -10 0 12 #c7c6ff #000000 #000000 0 1;
#X obj 89 104 r on;
#X obj 72 454 s chime;
#X obj 72 425 bng 19 250 50 0 empty empty empty 0 -10 0 12 #ffc7c6 #000000 #000000;
#X obj 72 344 expr if ($f1 == 10 \, 1 \, 0);
#X floatatom 72 373 5 0 0 0 - - - 0;
#X obj 633 548 r chime;
#N canvas 328 238 450 300 chime_delay 0;
#X floatatom 154 111 5 0 0 0 - - - 0;
#X obj 122 137 delay;
#X obj 122 162 bng 19 250 50 0 empty empty empty 0 -10 0 12 #fcfcfc #000000 #000000;
#X obj 154 64 random;
#X obj 121 25 inlet \$1;
#X obj 208 34 inlet \$2;
#X obj 122 186 outlet;
#X connect 0 0 1 1;
#X connect 1 0 2 0;
#X connect 2 0 6 0;
#X connect 3 0 0 0;
#X connect 4 0 1 0;
#X connect 4 0 3 0;
#X connect 5 0 3 1;
#X restore 633 577 pd chime_delay;
#X obj 633 626 s c_del4;
#X obj 508 613 pack f f;
#X obj 455 664 vline~;
#X obj 438 691 *~;
#X obj 429 515 r c_del4;
#X obj 438 720 s~ chime4;
#X obj 1109 548 r chime;
#N canvas 328 238 450 300 chime_delay 0;
#X floatatom 154 111 5 0 0 0 - - - 0;
#X obj 122 137 delay;
#X obj 122 162 bng 19 250 50 0 empty empty empty 0 -10 0 12 #fcfcfc #000000 #000000;
#X obj 154 64 random;
#X obj 121 25 inlet \$1;
#X obj 208 34 inlet \$2;
#X obj 122 186 outlet;
#X connect 0 0 1 1;
#X connect 1 0 2 0;
#X connect 2 0 6 0;
#X connect 3 0 0 0;
#X connect 4 0 1 0;
#X connect 4 0 3 0;
#X connect 5 0 3 1;
#X restore 1109 577 pd chime_delay;
#X obj 984 613 pack f f;
#X obj 931 664 vline~;
#X obj 914 691 *~;
#X obj 905 515 r c_del5;
#X obj 914 720 s~ chime5;
#X obj 1109 626 s c_del5;
#X obj 633 297 r chime;
#N canvas 2874 432 450 300 chime_delay 0;
#X floatatom 154 91 5 0 0 0 - - - 0;
#X obj 122 117 delay;
#X obj 122 142 bng 19 250 50 0 empty empty empty 0 -10 0 12 #fcfcfc #000000 #000000;
#X obj 154 64 random;
#X obj 122 166 outlet;
#X obj 122 13 inlet \$3;
#X obj 225 13 inlet \$4;
#X connect 0 0 1 1;
#X connect 1 0 2 0;
#X connect 2 0 4 0;
#X connect 3 0 0 0;
#X connect 5 0 1 0;
#X connect 5 0 3 0;
#X connect 6 0 3 1;
#X restore 633 326 pd chime_delay;
#X obj 508 362 pack f f;
#X obj 455 413 vline~;
#X obj 438 440 *~;
#X obj 1100 297 r chime;
#N canvas 328 238 450 300 chime_delay 0;
#X floatatom 154 111 5 0 0 0 - - - 0;
#X obj 122 137 delay;
#X obj 122 162 bng 19 250 50 0 empty empty empty 0 -10 0 12 #fcfcfc #000000 #000000;
#X obj 154 64 random;
#X obj 121 25 inlet \$1;
#X obj 208 34 inlet \$2;
#X obj 122 186 outlet;
#X connect 0 0 1 1;
#X connect 1 0 2 0;
#X connect 2 0 6 0;
#X connect 3 0 0 0;
#X connect 4 0 1 0;
#X connect 4 0 3 0;
#X connect 5 0 3 1;
#X restore 1100 326 pd chime_delay;
#X obj 975 362 pack f f;
#X obj 922 413 vline~;
#X obj 905 440 *~;
#X obj 1091 31 r chime;
#N canvas 328 238 450 300 chime_delay 0;
#X floatatom 154 111 5 0 0 0 - - - 0;
#X obj 122 137 delay;
#X obj 122 162 bng 19 250 50 0 empty empty empty 0 -10 0 12 #fcfcfc #000000 #000000;
#X obj 154 64 random;
#X obj 121 25 inlet \$1;
#X obj 208 34 inlet \$2;
#X obj 122 186 outlet;
#X connect 0 0 1 1;
#X connect 1 0 2 0;
#X connect 2 0 6 0;
#X connect 3 0 0 0;
#X connect 4 0 1 0;
#X connect 4 0 3 0;
#X connect 5 0 3 1;
#X restore 1091 60 pd chime_delay;
#X obj 966 96 pack f f;
#X obj 913 147 vline~;
#X obj 896 204 *~;
#X obj 887 -2 r c_del1;
#X obj 1091 109 s c_de11;
#X obj 896 233 s~ chime1;
#X obj 896 96 osc~ 784;
#X obj 429 264 r c_del2;
#X obj 438 469 s~ chime2;
#X obj 633 375 s c_del2;
#X obj 1100 375 s c_del3;
#X obj 896 264 r c_del3;
#X obj 905 469 s~ chime3;
#X obj 905 362 osc~ 528;
#X obj 633 350 bng 19 250 50 0 empty empty empty 0 -10 0 12 #ffc7c6 #000000 #000000;
#X obj 633 601 bng 19 250 50 0 empty empty empty 0 -10 0 12 #ffc7c6 #000000 #000000;
#X obj 1109 601 bng 19 250 50 0 empty empty empty 0 -10 0 12 #ffc7c6 #000000 #000000;
#X obj 1091 84 bng 19 250 50 0 empty empty empty 0 -10 0 12 #ffc7c6 #000000 #000000;
#X obj 1100 350 bng 19 250 50 0 empty empty empty 0 -10 0 12 #ffc7c6 #000000 #000000;
#N canvas 32 32 450 300 chimes 0;
#X obj 94 55 r~ chime2;
#X obj 325 55 r~ chime5;
#X obj 248 55 r~ chime4;
#X obj 171 55 r~ chime3;
#X obj 17 55 r~ chime1;
#X obj 171 138 outlet~;
#X connect 0 0 5 0;
#X connect 1 0 5 0;
#X connect 2 0 5 0;
#X connect 3 0 5 0;
#X connect 4 0 5 0;
#X restore 71 17 pd chimes;
#X msg 37 647 1800;
#X obj 89 589 r chime;
#X obj 89 618 random 900;
#X obj 89 647 + 900;
#X obj 72 220 lop~ 160;
#X obj 72 75 *~ 1;
#X text 44 566 chime duration;
#X msg 455 389 1 5 \, 0 \$1 \$1 \, 0 \$2 \$1;
#X msg 455 640 1 5 \, 0 \$1 \$1 \, 0 \$2 \$1;
#X msg 931 640 1 5 \, 0 \$1 \$1 \, 0 \$2 \$1;
#X msg 922 389 1 5 \, 0 \$1 \$1 \, 0 \$2 \$1;
#X msg 913 123 1 5 \, 0 \$1 \$1 \, 0 \$2 \$1;
#X text 156 27 all r~ chimes \, just to make it look nice;
#X text 23 293 plays chime when the wind hits hard;
#X obj 37 704 s chime_dur;
#X obj 561 264 r chime_dur;
#X obj 561 515 r chime_dur;
#X obj 1037 515 r chime_dur;
#X obj 1028 264 r chime_dur;
#X obj 1019 -2 r chime_dur;
#X obj 728 548 r chime_dur;
#X obj 1204 548 r chime_dur;
#X obj 1195 298 r chime_dur;
#X obj 1186 31 r chime_dur;
#X obj 728 297 r chime_dur;
#X text 651 274 random delay for each chime;
#X obj 914 613 osc~ 328;
#X obj 72 396 select 1;
#X obj 71 46 lop~ 80;
#X obj 438 362 osc~ 588;
#X obj 438 613 osc~ 444;
#X obj 508 587 /;
#X obj 984 587 /;
#X obj 975 336 /;
#X obj 966 70 /;
#N canvas 277 202 450 300 chime_dur_r 0;
#X obj 197 75 inlet;
#X obj 197 216 outlet;
#X obj 197 155 + 1;
#X floatatom 197 179 5 0 0 0 - - - 0;
#X obj 197 131 random 5;
#X connect 0 0 4 0;
#X connect 2 0 3 0;
#X connect 3 0 1 0;
#X connect 4 0 2 0;
#X restore 526 308 pd chime_dur_r;
#X obj 508 336 /;
#N canvas 277 202 450 300 chime_dur_r 0;
#X obj 197 75 inlet;
#X obj 197 216 outlet;
#X obj 197 155 + 1;
#X floatatom 197 179 5 0 0 0 - - - 0;
#X obj 197 131 random 5;
#X connect 0 0 4 0;
#X connect 2 0 3 0;
#X connect 3 0 1 0;
#X connect 4 0 2 0;
#X restore 984 41 pd chime_dur_r;
#N canvas 277 202 450 300 chime_dur_r 0;
#X obj 197 75 inlet;
#X obj 197 216 outlet;
#X obj 197 155 + 1;
#X floatatom 197 179 5 0 0 0 - - - 0;
#X obj 197 131 random 5;
#X connect 0 0 4 0;
#X connect 2 0 3 0;
#X connect 3 0 1 0;
#X connect 4 0 2 0;
#X restore 993 307 pd chime_dur_r;
#N canvas 277 202 450 300 chime_dur_r 0;
#X obj 197 75 inlet;
#X obj 197 216 outlet;
#X obj 197 155 + 1;
#X floatatom 197 179 5 0 0 0 - - - 0;
#X obj 197 131 random 5;
#X connect 0 0 4 0;
#X connect 2 0 3 0;
#X connect 3 0 1 0;
#X connect 4 0 2 0;
#X restore 526 558 pd chime_dur_r;
#N canvas 277 202 450 300 chime_dur_r 0;
#X obj 197 75 inlet;
#X obj 197 216 outlet;
#X obj 197 155 + 1;
#X floatatom 197 179 5 0 0 0 - - - 0;
#X obj 197 131 random 5;
#X connect 0 0 4 0;
#X connect 2 0 3 0;
#X connect 3 0 1 0;
#X connect 4 0 2 0;
#X restore 1002 558 pd chime_dur_r;
#X text 439 192 we wanted to clean the multiple chimes up with subpathces but we couldn't get it to work;
#X connect 0 0 1 0;
#X connect 1 0 64 0;
#X connect 3 0 10 0;
#X connect 4 0 74 0;
#X connect 5 0 60 0;
#X connect 6 0 0 1;
#X connect 7 0 6 0;
#X connect 9 0 8 0;
#X connect 10 0 11 0;
#X connect 11 0 87 0;
#X connect 12 0 13 0;
#X connect 13 0 55 0;
#X connect 15 0 68 0;
#X connect 16 0 17 1;
#X connect 17 0 19 0;
#X connect 18 0 15 0;
#X connect 18 0 99 0;
#X connect 20 0 21 0;
#X connect 21 0 56 0;
#X connect 22 0 69 0;
#X connect 23 0 24 1;
#X connect 24 0 26 0;
#X connect 25 0 22 0;
#X connect 25 0 100 0;
#X connect 28 0 29 0;
#X connect 29 0 54 0;
#X connect 30 0 67 0;
#X connect 31 0 32 1;
#X connect 32 0 48 0;
#X connect 33 0 34 0;
#X connect 34 0 58 0;
#X connect 35 0 70 0;
#X connect 36 0 37 1;
#X connect 37 0 52 0;
#X connect 38 0 39 0;
#X connect 39 0 57 0;
#X connect 40 0 71 0;
#X connect 41 0 42 1;
#X connect 42 0 45 0;
#X connect 43 0 40 0;
#X connect 43 0 97 0;
#X connect 46 0 42 0;
#X connect 47 0 30 0;
#X connect 47 0 95 0;
#X connect 51 0 35 0;
#X connect 51 0 98 0;
#X connect 53 0 37 0;
#X connect 54 0 49 0;
#X connect 55 0 14 0;
#X connect 56 0 27 0;
#X connect 57 0 44 0;
#X connect 58 0 50 0;
#X connect 59 0 88 0;
#X connect 60 0 4 0;
#X connect 61 0 62 0;
#X connect 62 0 63 0;
#X connect 63 0 4 0;
#X connect 64 0 2 0;
#X connect 65 0 0 0;
#X connect 67 0 31 0;
#X connect 68 0 16 0;
#X connect 69 0 23 0;
#X connect 70 0 36 0;
#X connect 71 0 41 0;
#X connect 75 0 30 1;
#X connect 75 0 96 0;
#X connect 76 0 15 1;
#X connect 76 0 91 0;
#X connect 77 0 22 1;
#X connect 77 0 92 0;
#X connect 78 0 35 1;
#X connect 78 0 93 0;
#X connect 79 0 40 1;
#X connect 79 0 94 0;
#X connect 80 0 13 1;
#X connect 81 0 21 1;
#X connect 82 0 34 1;
#X connect 83 0 39 1;
#X connect 84 0 29 1;
#X connect 86 0 24 0;
#X connect 87 0 9 0;
#X connect 88 0 65 0;
#X connect 89 0 32 0;
#X connect 90 0 17 0;
#X connect 91 0 15 0;
#X connect 92 0 22 0;
#X connect 93 0 35 0;
#X connect 94 0 40 0;
#X connect 95 0 96 1;
#X connect 96 0 30 0;
#X connect 97 0 94 1;
#X connect 98 0 93 1;
#X connect 99 0 91 1;
#X connect 100 0 92 1;
#X restore 94 47 pd wind_chime;
#X obj 93 179 *~;
#X obj 94 18 r w_snapshot;
#X obj 132 179 hsl 100 19 0 1 0 0 empty empty volume -2 -10 0 12 #c6ffc7 #000000 #000000 0 1;
#X obj 129 76 r on;
#X obj 129 100 sel 1;
#X msg 164 129 0;
#X obj 94 277 dac~;
#X obj 136 231 tgl 19 0 empty empty empty 0 -10 0 12 #c7c6ff #000000 #000000 0 1;
#X obj 136 254 metro 50;
#X obj 136 208 r on;
#X msg 129 129 0.2;
#X connect 0 0 1 0;
#X connect 1 0 7 0;
#X connect 1 0 7 1;
#X connect 2 0 0 0;
#X connect 3 0 1 1;
#X connect 4 0 5 0;
#X connect 5 0 11 0;
#X connect 5 1 6 0;
#X connect 6 0 3 0;
#X connect 8 0 9 0;
#X connect 10 0 8 0;
#X connect 11 0 3 0;
