#N canvas 286 321 545 500 12;
#X obj 52 180 *~;
#X obj 91 180 hsl 100 19 0 1 0 0 empty empty volume -2 -10 0 12 #c6ffc7 #000000 #000000 0 1;
#N canvas 824 265 1245 708 wind-2.0 0;
#X obj 288 139 noise~;
#X obj 326 172 *~;
#X obj 364 107 hsl 162 19 0 1 0 0 empty empty empty -2 -10 0 12 #c6ffc7 #000000 #000000 0 1;
#X floatatom 359 143 5 0 0 0 - - - 0;
#X obj 309 305 *~;
#X obj 413 284 osc~ 0.1;
#X obj 68 304 noise~;
#X obj 73 360 *~;
#X obj 138 305 hsl 120 19 0 1 0 0 empty empty empty -2 -10 0 12 #c6ffc7 #000000 #000000 0 1;
#X floatatom 112 336 5 0 0 0 - - - 0;
#N canvas 26 26 450 300 panning 0;
#X floatatom 127 92 5 0 0 0 - - - 0;
#X obj 105 130 *~;
#X obj 186 145 *~;
#X obj 139 171 +~;
#X obj 263 1 inlet;
#X obj 33 84 inlet~;
#X obj 196 89 inlet~;
#X obj 164 207 outlet~;
#X floatatom 249 123 11 0 0 0 - - - 0;
#X obj 235 33 * 1.5708;
#X obj 156 52 cos;
#X obj 291 66 sin;
#X connect 0 0 1 1;
#X connect 1 0 3 0;
#X connect 2 0 3 1;
#X connect 3 0 7 0;
#X connect 4 0 9 0;
#X connect 5 0 1 0;
#X connect 6 0 2 0;
#X connect 8 0 2 1;
#X connect 9 0 10 0;
#X connect 9 0 11 0;
#X connect 10 0 0 0;
#X connect 11 0 8 0;
#X restore 250 405 pd panning;
#X obj 366 372 hsl 120 19 0 1 0 0 empty empty empty -2 -10 0 12 #feffc6 #000000 #000000 0 1;
#X obj 421 233 hsl 120 19 0 0.2 0 0 empty empty empty -2 -10 0 12 #feffc6 #000000 #000000 0 1;
#X floatatom 418 259 5 0 0 0 - - - 0;
#X obj 249 467 lop~;
#X obj 783 107 bng 19 250 50 0 empty empty empty 0 -10 0 12 #ffc7c6 #000000 #000000;
#X obj 781 47 tgl 19 0 empty empty empty 0 -10 0 12 #c7c6ff #000000 #000000 0 1;
#X obj 600 353 random 100;
#X obj 610 463 line;
#X floatatom 599 555 14 0 0 0 - - - 0;
#X floatatom 603 494 5 0 0 0 - - - 0;
#X obj 903 136 random 10000;
#X obj 783 167 s windPassBang;
#X obj 543 317 r windPassBang;
#X obj 954 161 + 1200;
#X obj 901 183 s windPassWait;
#X obj 659 380 r windPassWait;
#X obj 848 47 r windPassWait;
#X floatatom 1009 183 5 0 0 0 - - - 0;
#X obj 599 525 expr pow(10 \, 2.69897+(($f1/100)*1.47712));
#X obj 608 406 pack f f;
#X msg 610 437 \$1 \$2;
#X obj 675 296 hsl 162 19 0 100 0 0 empty empty empty -2 -10 0 12 #feffc6 #000000 #000000 0 1;
#X text 880 298 Max Wind Intensity;
#X floatatom 667 325 5 0 0 0 - - - 0;
#X text 356 394 dry wind/lfo wind mix;
#X msg 672 270 85;
#X msg 417 206 0.015;
#X msg 361 81 0.5;
#X msg 364 345 0.4;
#X obj 246 666 outlet~;
#X obj 364 317 r on;
#X obj 361 53 r on;
#X obj 782 19 r on;
#X obj 670 243 r on;
#X obj 417 172 r on;
#X msg 135 278 0.4;
#X obj 135 250 r on;
#X obj 248 527 lop~ 280;
#X obj 781 80 metro 4000;
#X obj 250 561 *~ 0.5;
#X text 399 85 lfo wind volume;
#X text 470 208 LFO altering the volume of wind;
#X text 101 204 Dry wind volume;
#X text 97 223 Creates a constant flow of wind;
#X text 685 344 A random value for a low pass filter is chosen \, based on the max wind intensity;
#X text 662 461 Pure data linearly interpolates towards this value;
#X text 900 526 0 = 500 Hz \, 100 = 15000 Hz \, 85 ≈ 9000 Hz;
#X text 819 490 The value is changed to a frequency \, taking into account the logarithmic scale;
#X text 853 112 A bang is sent at a random time between 1.2 and 11.2 s;
#X connect 0 0 1 0;
#X connect 1 0 4 0;
#X connect 2 0 3 0;
#X connect 3 0 1 1;
#X connect 4 0 10 1;
#X connect 5 0 4 1;
#X connect 6 0 7 0;
#X connect 7 0 10 0;
#X connect 8 0 9 0;
#X connect 9 0 7 1;
#X connect 10 0 14 0;
#X connect 11 0 10 2;
#X connect 12 0 13 0;
#X connect 13 0 5 0;
#X connect 14 0 48 0;
#X connect 15 0 22 0;
#X connect 15 0 21 0;
#X connect 16 0 49 0;
#X connect 17 0 30 0;
#X connect 18 0 20 0;
#X connect 19 0 14 1;
#X connect 20 0 29 0;
#X connect 21 0 24 0;
#X connect 23 0 17 0;
#X connect 24 0 25 0;
#X connect 24 0 28 0;
#X connect 26 0 30 1;
#X connect 27 0 49 1;
#X connect 29 0 19 0;
#X connect 30 0 31 0;
#X connect 31 0 18 0;
#X connect 32 0 34 0;
#X connect 34 0 17 1;
#X connect 36 0 32 0;
#X connect 37 0 12 0;
#X connect 38 0 2 0;
#X connect 39 0 11 0;
#X connect 41 0 39 0;
#X connect 42 0 38 0;
#X connect 43 0 16 0;
#X connect 44 0 36 0;
#X connect 45 0 37 0;
#X connect 46 0 8 0;
#X connect 47 0 46 0;
#X connect 48 0 50 0;
#X connect 49 0 15 0;
#X connect 50 0 40 0;
#X restore 52 48 pd wind-2.0;
#X obj 88 78 r on;
#X obj 88 102 sel 1;
#X msg 123 131 0;
#X obj 51 279 dac~;
#X obj 93 209 r on;
#X obj 93 233 tgl 19 0 empty empty empty 0 -10 0 12 #c7c6ff #000000 #000000 0 1;
#X msg 88 131 0.4;
#X obj 93 256 metro 50;
#X obj 249 327 dac~;
#X obj 249 228 *~;
#X obj 288 228 hsl 100 19 0 1 0 0 empty empty volume -2 -10 0 12 #c6ffc7 #000000 #000000 0 1;
#N canvas 851 184 696 619 wind 0;
#X obj 77 12 noise~;
#X obj 76 163 bp~ \$1 \$2;
#X obj 168 92 hsl 162 19 10 40 0 0 empty empty empty -2 -10 0 12 #feffc6 #000000 #000000 0 1;
#X floatatom 165 116 5 0 0 0 - - - 0;
#X msg 165 69 20;
#X obj 165 39 tgl 19 0 empty empty empty 0 -10 0 12 #c7c6ff #000000 #000000 0 1;
#X obj 165 12 r on;
#X obj 75 431 *~;
#X obj 93 402 tgl 19 0 empty empty empty 0 -10 0 12 #c7c6ff #000000 #000000 0 1;
#X obj 93 375 r on;
#X obj 452 356 vline~;
#X obj 460 12 r on;
#X obj 460 36 tgl 19 0 empty empty empty 0 -10 0 12 #c7c6ff #000000 #000000 0 1;
#X obj 460 89 s w_metro;
#X obj 452 175 r w_metro;
#X obj 452 199 bng 19 250 50 0 empty empty empty 0 -10 0 12 #ffc7c6 #000000 #000000;
#X obj 509 432 snapshot~;
#X obj 509 356 r on;
#X obj 509 380 tgl 19 0 empty empty empty 0 -10 0 12 #c7c6ff #000000 #000000 0 1;
#X obj 509 404 metro 5;
#X floatatom 509 456 5 0 0 0 - - - 0;
#X obj 512 479 hsl 100 19 10 40 0 0 empty empty empty -2 -10 0 12 #feffc6 #000000 #000000 0 1;
#X obj 509 503 s w_snapshot;
#X obj 207 62 r w_snapshot;
#X obj 75 298 hip~ 1500;
#X obj 74 470 outlet~;
#X obj 460 65 metro 1500;
#X msg 106 117 780;
#X floatatom 135 274 5 0 0 0 - - - 0;
#X obj 135 250 * 40;
#X msg 505 286 40 900 \, 10 1200 900;
#X msg 452 320 40 800 \, 10 500 900;
#X obj 75 347 *~ 1;
#X obj 452 223 random 6;
#X obj 135 226 r w_snapshot;
#X text 445 151 wind blows "hard" 1/6 of the time;
#X obj 413 296 tgl 19 0 empty empty empty 0 -10 0 12 #c7c6ff #000000 #000000 0 1;
#X obj 413 270 r on;
#X msg 413 320 0;
#X obj 452 247 select 1;
#X obj 228 226 lop~ 100;
#X obj 228 250 *~ 8;
#X obj 526 198 inlet;
#X floatatom 526 222 5 0 0 0 - - - 0;
#X connect 0 0 1 0;
#X connect 1 0 24 0;
#X connect 1 0 40 0;
#X connect 2 0 3 0;
#X connect 3 0 1 2;
#X connect 4 0 2 0;
#X connect 5 0 4 0;
#X connect 5 0 27 0;
#X connect 6 0 5 0;
#X connect 7 0 25 0;
#X connect 8 0 7 1;
#X connect 9 0 8 0;
#X connect 10 0 16 0;
#X connect 11 0 12 0;
#X connect 12 0 26 0;
#X connect 14 0 15 0;
#X connect 15 0 33 0;
#X connect 16 0 20 0;
#X connect 17 0 18 0;
#X connect 18 0 19 0;
#X connect 19 0 16 0;
#X connect 20 0 21 0;
#X connect 21 0 22 0;
#X connect 23 0 2 0;
#X connect 24 0 32 0;
#X connect 26 0 13 0;
#X connect 27 0 1 1;
#X connect 28 0 24 1;
#X connect 29 0 28 0;
#X connect 30 0 10 0;
#X connect 31 0 10 0;
#X connect 32 0 7 0;
#X connect 33 0 39 0;
#X connect 34 0 29 0;
#X connect 36 0 38 0;
#X connect 37 0 36 0;
#X connect 39 0 31 0;
#X connect 39 1 30 0;
#X connect 40 0 41 0;
#X connect 41 0 32 0;
#X connect 42 0 33 1;
#X connect 42 0 43 0;
#X restore 249 96 pd wind;
#X obj 285 126 r on;
#X obj 285 150 sel 1;
#X msg 320 179 0;
#X obj 291 280 tgl 19 0 empty empty empty 0 -10 0 12 #c7c6ff #000000 #000000 0 1;
#X obj 291 304 metro 50;
#X obj 291 257 r on;
#X msg 285 179 0.2;
#X obj 252 60 hsl 162 19 6 2 0 0 empty empty gust\ frequency -2 -10 0 12 #c6feff #000000 #000000 0 1;
#X obj 103 448 s on;
#X obj 103 332 tgl 100 0 empty empty On/Off\ everything 0 -10 0 12 #c7c6ff #000000 #000000 0 1;
#X connect 0 0 6 0;
#X connect 0 0 6 1;
#X connect 1 0 0 1;
#X connect 2 0 0 0;
#X connect 3 0 4 0;
#X connect 4 0 9 0;
#X connect 4 1 5 0;
#X connect 5 0 1 0;
#X connect 7 0 8 0;
#X connect 8 0 10 0;
#X connect 9 0 1 0;
#X connect 12 0 11 0;
#X connect 12 0 11 1;
#X connect 13 0 12 1;
#X connect 14 0 12 0;
#X connect 15 0 16 0;
#X connect 16 0 21 0;
#X connect 16 1 17 0;
#X connect 17 0 13 0;
#X connect 18 0 19 0;
#X connect 20 0 18 0;
#X connect 21 0 13 0;
#X connect 22 0 14 0;
#X connect 24 0 23 0;
